<svg xmlns="http://www.w3.org/2000/svg" version="1.1" xmlns:xlink="http://www.w3.org/1999/xlink" xmlns:svgjs="http://svgjs.com/svgjs" width="1920" height="1080" preserveAspectRatio="none" viewBox="0 0 1920 1080"><g clip-path="url(&quot;#SvgjsClipPath1011&quot;)" fill="none"><rect width="1920" height="1080" x="0" y="0" fill="#0e2a47"></rect><circle r="180" cx="159.7" cy="8.44" stroke="#365aa3" stroke-opacity="0.25" stroke-width="2"></circle><circle r="180" cx="873.88" cy="635.56" stroke="#365aa3" stroke-opacity="0.25" stroke-width="2"></circle><circle r="342.615" cx="1286.4" cy="452.32" stroke="#365aa3" stroke-opacity="0.25" stroke-width="2"></circle><circle r="354.71" cx="291.87" cy="402.67" stroke="#365aa3" stroke-opacity="0.25" stroke-width="2"></circle><circle r="126.74" cx="1876.86" cy="824.03" stroke="#365aa3" stroke-opacity="0.25" stroke-width="2"></circle><circle r="118.25" cx="1652.44" cy="452.16" stroke="#365aa3" stroke-opacity="0.25" stroke-width="2"></circle><circle r="151.565" cx="1451.05" cy="30.54" stroke="#365aa3" stroke-opacity="0.25" stroke-width="2"></circle><circle r="225.285" cx="468.13" cy="557.81" stroke="#365aa3" stroke-opacity="0.25" stroke-width="2"></circle><circle r="153.54" cx="24.03" cy="877.51" stroke="#365aa3" stroke-opacity="0.25" stroke-width="2"></circle><circle r="322.58" cx="1890.26" cy="357.4" stroke="#365aa3" stroke-opacity="0.25" stroke-width="2"></circle><circle r="179.84" cx="516.12" cy="933.29" stroke="#365aa3" stroke-opacity="0.25" stroke-width="2"></circle><circle r="178.95" cx="1740.6" cy="633.17" stroke="#365aa3" stroke-opacity="0.25" stroke-width="2"></circle><circle r="144.985" cx="925.79" cy="103.86" stroke="#365aa3" stroke-opacity="0.25" stroke-width="2"></circle><circle r="294.39" cx="869.42" cy="501.6" stroke="#365aa3" stroke-opacity="0.25" stroke-width="2"></circle><circle r="326.785" cx="1743.17" cy="132.04" stroke="#365aa3" stroke-opacity="0.25" stroke-width="2"></circle><circle r="116.1" cx="712.78" cy="318.99" stroke="#365aa3" stroke-opacity="0.25" stroke-width="2"></circle><circle r="177.14" cx="871.98" cy="579.56" stroke="#365aa3" stroke-opacity="0.25" stroke-width="2"></circle><circle r="358.555" cx="535.89" cy="489.45" stroke="#365aa3" stroke-opacity="0.25" stroke-width="2"></circle><circle r="269.535" cx="151.15" cy="965.16" stroke="#365aa3" stroke-opacity="0.25" stroke-width="2"></circle><circle r="347.6" cx="138.35" cy="76.82" stroke="#365aa3" stroke-opacity="0.25" stroke-width="2"></circle><circle r="220.395" cx="1911.75" cy="182.83" stroke="#365aa3" stroke-opacity="0.25" stroke-width="2"></circle><circle r="197.395" cx="641.59" cy="830.18" stroke="#365aa3" stroke-opacity="0.25" stroke-width="2"></circle><circle r="324.95" cx="178.56" cy="19.28" stroke="#365aa3" stroke-opacity="0.25" stroke-width="2"></circle><circle r="231.35" cx="1355.32" cy="686.02" stroke="#365aa3" stroke-opacity="0.25" stroke-width="2"></circle><circle r="297.505" cx="563.85" cy="265.12" stroke="#365aa3" stroke-opacity="0.25" stroke-width="2"></circle><circle r="261.515" cx="269.84" cy="760.19" stroke="#365aa3" stroke-opacity="0.25" stroke-width="2"></circle><circle r="125.345" cx="981.84" cy="373.47" stroke="#365aa3" stroke-opacity="0.25" stroke-width="2"></circle><circle r="327.32" cx="15.44" cy="125.35" stroke="#365aa3" stroke-opacity="0.25" stroke-width="2"></circle><circle r="238.555" cx="1368.89" cy="317.25" stroke="#365aa3" stroke-opacity="0.25" stroke-width="2"></circle><circle r="293.415" cx="1270.34" cy="396.57" stroke="#365aa3" stroke-opacity="0.25" stroke-width="2"></circle><circle r="100.435" cx="156.3" cy="256.43" stroke="#365aa3" stroke-opacity="0.25" stroke-width="2"></circle><circle r="235.73" cx="1034.11" cy="753.49" stroke="#365aa3" stroke-opacity="0.25" stroke-width="2"></circle><circle r="144.075" cx="378.82" cy="12.69" stroke="#365aa3" stroke-opacity="0.25" stroke-width="2"></circle><circle r="104.4" cx="634.9" cy="447.53" stroke="#365aa3" stroke-opacity="0.25" stroke-width="2"></circle><circle r="344.73" cx="774.38" cy="871.9" stroke="#365aa3" stroke-opacity="0.25" stroke-width="2"></circle><circle r="288.235" cx="1412.6" cy="151.87" stroke="#365aa3" stroke-opacity="0.25" stroke-width="2"></circle><circle r="185.53" cx="1058.43" cy="328.03" stroke="#365aa3" stroke-opacity="0.25" stroke-width="2"></circle><circle r="322.16" cx="875.26" cy="568.74" stroke="#365aa3" stroke-opacity="0.25" stroke-width="2"></circle><circle r="138.075" cx="1625.97" cy="268.29" stroke="#365aa3" stroke-opacity="0.25" stroke-width="2"></circle><circle r="232.03" cx="1683.1" cy="635.44" stroke="#365aa3" stroke-opacity="0.25" stroke-width="2"></circle></g><defs><clipPath id="SvgjsClipPath1011"><rect width="1920" height="1080" x="0" y="0"></rect></clipPath></defs></svg>